M48
; DRILL file {KiCad 7.0.8} date Mon Aug 26 18:47:27 2024
; FORMAT={-:-/ absolute / inch / decimal}
; #@! TF.CreationDate,2024-08-26T18:47:27+09:00
; #@! TF.GenerationSoftware,Kicad,Pcbnew,7.0.8
; #@! TF.FileFunction,NonPlated,1,2,NPTH
FMAT,2
INCH
; #@! TA.AperFunction,NonPlated,NPTH,ComponentDrill
T1C0.0197
; #@! TA.AperFunction,NonPlated,NPTH,ComponentDrill
T2C0.1260
%
G90
G05
T1
X3.9173Y-0.9843
X3.9173Y-4.4488
X3.9469Y-0.9843
X3.9469Y-4.4488
X3.9764Y-0.9843
X3.9764Y-4.4488
X4.0059Y-0.9843
X4.0059Y-4.4488
X4.0354Y-0.9843
X4.0354Y-4.4488
X4.1043Y-1.7323
X4.1043Y-1.7651
X4.1043Y-1.7979
X4.1043Y-1.8307
X4.1043Y-1.8635
X4.1043Y-1.8963
X4.1043Y-1.9291
X4.1043Y-3.5039
X4.1043Y-3.5367
X4.1043Y-3.5696
X4.1043Y-3.6024
X4.1043Y-3.6352
X4.1043Y-3.668
X4.1043Y-3.7008
X4.8622Y-0.9744
X4.8622Y-2.687
X4.8622Y-2.7461
X4.8622Y-4.4587
X4.895Y-0.9744
X4.895Y-2.687
X4.895Y-2.7461
X4.895Y-4.4587
X4.9278Y-0.9744
X4.9278Y-2.687
X4.9278Y-2.7461
X4.9278Y-4.4587
X4.9606Y-0.9744
X4.9606Y-2.687
X4.9606Y-2.7461
X4.9606Y-4.4587
X4.9934Y-0.9744
X4.9934Y-2.687
X4.9934Y-2.7461
X4.9934Y-4.4587
X5.0262Y-0.9744
X5.0262Y-2.687
X5.0262Y-2.7461
X5.0262Y-4.4587
X5.0591Y-0.9744
X5.0591Y-2.687
X5.0591Y-2.7461
X5.0591Y-4.4587
X5.8169Y-1.7323
X5.8169Y-1.7651
X5.8169Y-1.7979
X5.8169Y-1.8307
X5.8169Y-1.8635
X5.8169Y-1.8963
X5.8169Y-1.9291
X5.8169Y-3.5039
X5.8169Y-3.5367
X5.8169Y-3.5696
X5.8169Y-3.6024
X5.8169Y-3.6352
X5.8169Y-3.668
X5.8169Y-3.7008
X5.876Y-1.7323
X5.876Y-1.7651
X5.876Y-1.7979
X5.876Y-1.8307
X5.876Y-1.8635
X5.876Y-1.8963
X5.876Y-1.9291
X5.876Y-3.5039
X5.876Y-3.5367
X5.876Y-3.5696
X5.876Y-3.6024
X5.876Y-3.6352
X5.876Y-3.668
X5.876Y-3.7008
X6.6339Y-0.9744
X6.6339Y-2.687
X6.6339Y-2.7461
X6.6339Y-4.4587
X6.6667Y-0.9744
X6.6667Y-2.687
X6.6667Y-2.7461
X6.6667Y-4.4587
X6.6995Y-0.9744
X6.6995Y-2.687
X6.6995Y-2.7461
X6.6995Y-4.4587
X6.7323Y-0.9744
X6.7323Y-2.687
X6.7323Y-2.7461
X6.7323Y-4.4587
X6.7651Y-0.9744
X6.7651Y-2.687
X6.7651Y-2.7461
X6.7651Y-4.4587
X6.7979Y-0.9744
X6.7979Y-2.687
X6.7979Y-2.7461
X6.7979Y-4.4587
X6.8307Y-0.9744
X6.8307Y-2.687
X6.8307Y-2.7461
X6.8307Y-4.4587
X7.5886Y-1.7323
X7.5886Y-1.7651
X7.5886Y-1.7979
X7.5886Y-1.8307
X7.5886Y-1.8635
X7.5886Y-1.8963
X7.5886Y-1.9291
X7.5886Y-3.5039
X7.5886Y-3.5367
X7.5886Y-3.5696
X7.5886Y-3.6024
X7.5886Y-3.6352
X7.5886Y-3.668
X7.5886Y-3.7008
X7.6575Y-0.9843
X7.6575Y-4.4488
X7.687Y-0.9843
X7.687Y-4.4488
X7.7165Y-0.9843
X7.7165Y-4.4488
X7.7461Y-0.9843
X7.7461Y-4.4488
X7.7756Y-0.9843
X7.7756Y-4.4488
T2
X4.2323Y-1.1024
X4.2323Y-2.5591
X4.2323Y-2.874
X4.2323Y-4.3307
X5.689Y-1.1024
X5.689Y-2.5591
X5.689Y-2.874
X5.689Y-4.3307
X6.0039Y-1.1024
X6.0039Y-2.5591
X6.0039Y-2.874
X6.0039Y-4.3307
X7.4606Y-1.1024
X7.4606Y-2.5591
X7.4606Y-2.874
X7.4606Y-4.3307
T0
M30
