%TF.GenerationSoftware,KiCad,Pcbnew,7.0.8*%
%TF.CreationDate,2024-04-14T16:12:13+09:00*%
%TF.ProjectId,multivibrator_panel,6d756c74-6976-4696-9272-61746f725f70,rev?*%
%TF.SameCoordinates,Original*%
%TF.FileFunction,Soldermask,Bot*%
%TF.FilePolarity,Negative*%
%FSLAX46Y46*%
G04 Gerber Fmt 4.6, Leading zero omitted, Abs format (unit mm)*
G04 Created by KiCad (PCBNEW 7.0.8) date 2024-04-14 16:12:13*
%MOMM*%
%LPD*%
G01*
G04 APERTURE LIST*
%ADD10C,1.600000*%
%ADD11O,1.600000X1.600000*%
%ADD12C,0.500000*%
%ADD13C,3.200000*%
%ADD14R,1.500000X1.500000*%
%ADD15C,1.500000*%
%ADD16R,1.800000X1.800000*%
%ADD17C,1.800000*%
%ADD18R,1.600000X1.600000*%
%ADD19R,1.700000X1.700000*%
%ADD20O,1.700000X1.700000*%
G04 APERTURE END LIST*
D10*
%TO.C,R3*%
X122195000Y-81008000D03*
D11*
X122195000Y-91168000D03*
%TD*%
D12*
%TO.C,KiKit_MB_1_5*%
X104750000Y-45666667D03*
%TD*%
D13*
%TO.C,H3*%
X152500000Y-110000000D03*
%TD*%
D14*
%TO.C,Q2*%
X181800000Y-64720000D03*
D15*
X181800000Y-62180000D03*
X181800000Y-59640000D03*
%TD*%
D12*
%TO.C,KiKit_MB_7_2*%
X169333333Y-25250000D03*
%TD*%
%TO.C,KiKit_MB_10_2*%
X147250000Y-89833333D03*
%TD*%
%TO.C,KiKit_MB_15_5*%
X171833333Y-70250000D03*
%TD*%
%TO.C,KiKit_MB_2_7*%
X147250000Y-49000000D03*
%TD*%
D14*
%TO.C,Q2*%
X136800000Y-64720000D03*
D15*
X136800000Y-62180000D03*
X136800000Y-59640000D03*
%TD*%
D12*
%TO.C,KiKit_MB_17_5*%
X102500000Y-25000000D03*
%TD*%
%TO.C,KiKit_MB_13_7*%
X149750000Y-89000000D03*
%TD*%
%TO.C,KiKit_MB_13_6*%
X149750000Y-89833333D03*
%TD*%
%TO.C,KiKit_MB_3_2*%
X124333334Y-25250000D03*
%TD*%
D16*
%TO.C,D1*%
X113940000Y-80505000D03*
D17*
X113940000Y-77965000D03*
%TD*%
D12*
%TO.C,KiKit_MB_4_6*%
X124333334Y-67750000D03*
%TD*%
%TO.C,KiKit_MB_19_2*%
X195250000Y-25000000D03*
%TD*%
D18*
%TO.C,C2*%
X134500000Y-98000000D03*
D10*
X132000000Y-98000000D03*
%TD*%
%TO.C,R4*%
X130450000Y-81008000D03*
D11*
X130450000Y-91168000D03*
%TD*%
D12*
%TO.C,KiKit_MB_7_3*%
X170166666Y-25250000D03*
%TD*%
%TO.C,KiKit_MB_6_4*%
X192250000Y-46500000D03*
%TD*%
%TO.C,KiKit_MB_1_1*%
X104750000Y-49000000D03*
%TD*%
D13*
%TO.C,H4*%
X189500000Y-110000000D03*
%TD*%
D12*
%TO.C,KiKit_MB_9_1*%
X104750000Y-94000000D03*
%TD*%
%TO.C,KiKit_MB_10_6*%
X147250000Y-93166666D03*
%TD*%
%TO.C,KiKit_MB_9_7*%
X104750000Y-89000000D03*
%TD*%
%TO.C,KiKit_MB_10_7*%
X147250000Y-94000000D03*
%TD*%
%TO.C,KiKit_MB_15_1*%
X168500000Y-70250000D03*
%TD*%
%TO.C,KiKit_MB_3_1*%
X123500000Y-25250000D03*
%TD*%
D10*
%TO.C,R1*%
X113940000Y-41220000D03*
D11*
X113940000Y-51380000D03*
%TD*%
D12*
%TO.C,KiKit_MB_12_6*%
X124333334Y-112750000D03*
%TD*%
%TO.C,KiKit_MB_4_7*%
X123500000Y-67750000D03*
%TD*%
D18*
%TO.C,C1*%
X163500000Y-53026000D03*
D10*
X166000000Y-53026000D03*
%TD*%
D12*
%TO.C,KiKit_MB_3_5*%
X126833333Y-25250000D03*
%TD*%
%TO.C,KiKit_MB_19_4*%
X196750000Y-25000000D03*
%TD*%
%TO.C,KiKit_MB_7_4*%
X171000000Y-25250000D03*
%TD*%
%TO.C,KiKit_MB_16_5*%
X170166666Y-112750000D03*
%TD*%
%TO.C,KiKit_MB_2_4*%
X147250000Y-46500000D03*
%TD*%
D10*
%TO.C,R1*%
X158940000Y-86220000D03*
D11*
X158940000Y-96380000D03*
%TD*%
D10*
%TO.C,R3*%
X167195000Y-81008000D03*
D11*
X167195000Y-91168000D03*
%TD*%
D12*
%TO.C,KiKit_MB_6_3*%
X192250000Y-45666667D03*
%TD*%
D16*
%TO.C,D1*%
X158940000Y-35505000D03*
D17*
X158940000Y-32965000D03*
%TD*%
D12*
%TO.C,KiKit_MB_9_2*%
X104750000Y-93166666D03*
%TD*%
%TO.C,KiKit_MB_16_7*%
X168500000Y-112750000D03*
%TD*%
%TO.C,KiKit_MB_9_6*%
X104750000Y-89833333D03*
%TD*%
D13*
%TO.C,H3*%
X107500000Y-110000000D03*
%TD*%
D19*
%TO.C,J1*%
X144500000Y-53460000D03*
D20*
X144500000Y-56000000D03*
%TD*%
D12*
%TO.C,KiKit_MB_7_5*%
X171833333Y-25250000D03*
%TD*%
%TO.C,KiKit_MB_10_3*%
X147250000Y-90666666D03*
%TD*%
%TO.C,KiKit_MB_10_4*%
X147250000Y-91500000D03*
%TD*%
%TO.C,KiKit_MB_14_4*%
X192250000Y-91500000D03*
%TD*%
%TO.C,KiKit_MB_11_4*%
X126000000Y-70250000D03*
%TD*%
D11*
%TO.C,*%
X128500000Y-100000000D03*
%TD*%
D12*
%TO.C,KiKit_MB_12_7*%
X123500000Y-112750000D03*
%TD*%
%TO.C,KiKit_MB_16_6*%
X169333333Y-112750000D03*
%TD*%
D10*
%TO.C,R3*%
X122195000Y-36008000D03*
D11*
X122195000Y-46168000D03*
%TD*%
D12*
%TO.C,KiKit_MB_16_1*%
X173500000Y-112750000D03*
%TD*%
%TO.C,KiKit_MB_2_3*%
X147250000Y-45666667D03*
%TD*%
D19*
%TO.C,J1*%
X144500000Y-98460000D03*
D20*
X144500000Y-101000000D03*
%TD*%
D13*
%TO.C,H3*%
X152500000Y-65000000D03*
%TD*%
D12*
%TO.C,KiKit_MB_4_2*%
X127666666Y-67750000D03*
%TD*%
D10*
%TO.C,R1*%
X113940000Y-86220000D03*
D11*
X113940000Y-96380000D03*
%TD*%
D12*
%TO.C,KiKit_MB_18_1*%
X99500000Y-113000000D03*
%TD*%
%TO.C,KiKit_MB_12_1*%
X128500000Y-112750000D03*
%TD*%
%TO.C,KiKit_MB_20_3*%
X196000000Y-113000000D03*
%TD*%
%TO.C,KiKit_MB_19_5*%
X197500000Y-25000000D03*
%TD*%
D13*
%TO.C,H2*%
X189500000Y-73000000D03*
%TD*%
D18*
%TO.C,C2*%
X179500000Y-53000000D03*
D10*
X177000000Y-53000000D03*
%TD*%
D12*
%TO.C,KiKit_MB_13_5*%
X149750000Y-90666666D03*
%TD*%
D18*
%TO.C,C2*%
X134500000Y-53000000D03*
D10*
X132000000Y-53000000D03*
%TD*%
D13*
%TO.C,H1*%
X152500000Y-28000000D03*
%TD*%
D12*
%TO.C,KiKit_MB_7_7*%
X173500000Y-25250000D03*
%TD*%
%TO.C,KiKit_MB_8_1*%
X173500000Y-67750000D03*
%TD*%
%TO.C,KiKit_MB_9_5*%
X104750000Y-90666666D03*
%TD*%
%TO.C,KiKit_MB_12_2*%
X127666666Y-112750000D03*
%TD*%
D10*
%TO.C,R4*%
X130450000Y-36008000D03*
D11*
X130450000Y-46168000D03*
%TD*%
D13*
%TO.C,H2*%
X189500000Y-28000000D03*
%TD*%
D12*
%TO.C,KiKit_MB_10_5*%
X147250000Y-92333333D03*
%TD*%
%TO.C,KiKit_MB_11_5*%
X126833333Y-70250000D03*
%TD*%
%TO.C,KiKit_MB_18_4*%
X101750000Y-113000000D03*
%TD*%
%TO.C,KiKit_MB_6_2*%
X192250000Y-44833334D03*
%TD*%
%TO.C,KiKit_MB_11_7*%
X128500000Y-70250000D03*
%TD*%
D19*
%TO.C,J1*%
X189500000Y-53460000D03*
D20*
X189500000Y-56000000D03*
%TD*%
D12*
%TO.C,KiKit_MB_16_2*%
X172666666Y-112750000D03*
%TD*%
%TO.C,KiKit_MB_2_1*%
X147250000Y-44000000D03*
%TD*%
%TO.C,KiKit_MB_17_4*%
X101750000Y-25000000D03*
%TD*%
%TO.C,KiKit_MB_19_3*%
X196000000Y-25000000D03*
%TD*%
D14*
%TO.C,Q1*%
X115845000Y-64710000D03*
D15*
X115845000Y-62170000D03*
X115845000Y-59630000D03*
%TD*%
D12*
%TO.C,KiKit_MB_3_4*%
X126000000Y-25250000D03*
%TD*%
%TO.C,KiKit_MB_8_3*%
X171833333Y-67750000D03*
%TD*%
%TO.C,KiKit_MB_1_3*%
X104750000Y-47333333D03*
%TD*%
%TO.C,KiKit_MB_3_6*%
X127666666Y-25250000D03*
%TD*%
D10*
%TO.C,R4*%
X175450000Y-81008000D03*
D11*
X175450000Y-91168000D03*
%TD*%
D12*
%TO.C,KiKit_MB_17_1*%
X99500000Y-25000000D03*
%TD*%
D13*
%TO.C,H3*%
X107500000Y-65000000D03*
%TD*%
D12*
%TO.C,KiKit_MB_3_3*%
X125166667Y-25250000D03*
%TD*%
%TO.C,KiKit_MB_6_7*%
X192250000Y-49000000D03*
%TD*%
D13*
%TO.C,H4*%
X189500000Y-65000000D03*
%TD*%
D12*
%TO.C,KiKit_MB_5_4*%
X149750000Y-46500000D03*
%TD*%
%TO.C,KiKit_MB_5_5*%
X149750000Y-45666667D03*
%TD*%
D13*
%TO.C,H1*%
X107500000Y-28000000D03*
%TD*%
D11*
%TO.C,*%
X169500000Y-104000000D03*
%TD*%
D12*
%TO.C,KiKit_MB_14_2*%
X192250000Y-89833333D03*
%TD*%
%TO.C,KiKit_MB_5_3*%
X149750000Y-47333333D03*
%TD*%
%TO.C,KiKit_MB_1_6*%
X104750000Y-44833334D03*
%TD*%
%TO.C,KiKit_MB_5_7*%
X149750000Y-44000000D03*
%TD*%
D14*
%TO.C,Q1*%
X115845000Y-109710000D03*
D15*
X115845000Y-107170000D03*
X115845000Y-104630000D03*
%TD*%
D10*
%TO.C,R2*%
X183705000Y-41305000D03*
D11*
X183705000Y-51465000D03*
%TD*%
D12*
%TO.C,KiKit_MB_18_3*%
X101000000Y-113000000D03*
%TD*%
%TO.C,KiKit_MB_8_6*%
X169333333Y-67750000D03*
%TD*%
%TO.C,KiKit_MB_15_2*%
X169333333Y-70250000D03*
%TD*%
%TO.C,KiKit_MB_6_6*%
X192250000Y-48166666D03*
%TD*%
D16*
%TO.C,D2*%
X183705000Y-35505000D03*
D17*
X183705000Y-32965000D03*
%TD*%
D14*
%TO.C,Q1*%
X160845000Y-64710000D03*
D15*
X160845000Y-62170000D03*
X160845000Y-59630000D03*
%TD*%
D12*
%TO.C,KiKit_MB_15_3*%
X170166666Y-70250000D03*
%TD*%
D13*
%TO.C,H1*%
X152500000Y-73000000D03*
%TD*%
D12*
%TO.C,KiKit_MB_8_5*%
X170166666Y-67750000D03*
%TD*%
%TO.C,KiKit_MB_15_7*%
X173500000Y-70250000D03*
%TD*%
%TO.C,KiKit_MB_3_7*%
X128500000Y-25250000D03*
%TD*%
D10*
%TO.C,R2*%
X138705000Y-41305000D03*
D11*
X138705000Y-51465000D03*
%TD*%
D12*
%TO.C,KiKit_MB_8_4*%
X171000000Y-67750000D03*
%TD*%
D11*
%TO.C,*%
X124500000Y-59000000D03*
%TD*%
D10*
%TO.C,R3*%
X167195000Y-36008000D03*
D11*
X167195000Y-46168000D03*
%TD*%
D12*
%TO.C,KiKit_MB_11_6*%
X127666666Y-70250000D03*
%TD*%
%TO.C,KiKit_MB_7_1*%
X168500000Y-25250000D03*
%TD*%
D18*
%TO.C,C1*%
X118500000Y-53026000D03*
D10*
X121000000Y-53026000D03*
%TD*%
D12*
%TO.C,KiKit_MB_7_6*%
X172666666Y-25250000D03*
%TD*%
%TO.C,KiKit_MB_5_1*%
X149750000Y-49000000D03*
%TD*%
D10*
%TO.C,R1*%
X158940000Y-41220000D03*
D11*
X158940000Y-51380000D03*
%TD*%
D12*
%TO.C,KiKit_MB_20_2*%
X195250000Y-113000000D03*
%TD*%
%TO.C,KiKit_MB_11_3*%
X125166667Y-70250000D03*
%TD*%
%TO.C,KiKit_MB_11_1*%
X123500000Y-70250000D03*
%TD*%
D13*
%TO.C,H1*%
X107500000Y-73000000D03*
%TD*%
D12*
%TO.C,KiKit_MB_2_5*%
X147250000Y-47333333D03*
%TD*%
%TO.C,KiKit_MB_6_5*%
X192250000Y-47333333D03*
%TD*%
%TO.C,KiKit_MB_15_6*%
X172666666Y-70250000D03*
%TD*%
%TO.C,KiKit_MB_9_3*%
X104750000Y-92333333D03*
%TD*%
D14*
%TO.C,Q2*%
X181800000Y-109720000D03*
D15*
X181800000Y-107180000D03*
X181800000Y-104640000D03*
%TD*%
D12*
%TO.C,KiKit_MB_15_4*%
X171000000Y-70250000D03*
%TD*%
%TO.C,KiKit_MB_14_6*%
X192250000Y-93166666D03*
%TD*%
D14*
%TO.C,Q2*%
X136800000Y-109720000D03*
D15*
X136800000Y-107180000D03*
X136800000Y-104640000D03*
%TD*%
D12*
%TO.C,KiKit_MB_18_5*%
X102500000Y-113000000D03*
%TD*%
%TO.C,KiKit_MB_20_1*%
X194500000Y-113000000D03*
%TD*%
%TO.C,KiKit_MB_20_4*%
X196750000Y-113000000D03*
%TD*%
%TO.C,KiKit_MB_13_4*%
X149750000Y-91500000D03*
%TD*%
%TO.C,KiKit_MB_12_5*%
X125166667Y-112750000D03*
%TD*%
%TO.C,KiKit_MB_12_4*%
X126000000Y-112750000D03*
%TD*%
%TO.C,KiKit_MB_11_2*%
X124333334Y-70250000D03*
%TD*%
D11*
%TO.C,*%
X173500000Y-100000000D03*
%TD*%
%TO.C,*%
X169500000Y-59000000D03*
%TD*%
D12*
%TO.C,KiKit_MB_6_1*%
X192250000Y-44000000D03*
%TD*%
%TO.C,KiKit_MB_10_1*%
X147250000Y-89000000D03*
%TD*%
%TO.C,KiKit_MB_2_6*%
X147250000Y-48166666D03*
%TD*%
%TO.C,KiKit_MB_17_2*%
X100250000Y-25000000D03*
%TD*%
D10*
%TO.C,R4*%
X175450000Y-36008000D03*
D11*
X175450000Y-46168000D03*
%TD*%
D16*
%TO.C,D2*%
X183705000Y-80505000D03*
D17*
X183705000Y-77965000D03*
%TD*%
D12*
%TO.C,KiKit_MB_4_3*%
X126833333Y-67750000D03*
%TD*%
D11*
%TO.C,*%
X128500000Y-55000000D03*
%TD*%
D10*
%TO.C,R2*%
X138705000Y-86305000D03*
D11*
X138705000Y-96465000D03*
%TD*%
D12*
%TO.C,KiKit_MB_14_3*%
X192250000Y-90666666D03*
%TD*%
%TO.C,KiKit_MB_20_5*%
X197500000Y-113000000D03*
%TD*%
%TO.C,KiKit_MB_4_4*%
X126000000Y-67750000D03*
%TD*%
%TO.C,KiKit_MB_14_1*%
X192250000Y-89000000D03*
%TD*%
D16*
%TO.C,D1*%
X158940000Y-80505000D03*
D17*
X158940000Y-77965000D03*
%TD*%
D13*
%TO.C,H2*%
X144500000Y-73000000D03*
%TD*%
D12*
%TO.C,KiKit_MB_12_3*%
X126833333Y-112750000D03*
%TD*%
D16*
%TO.C,D2*%
X138705000Y-35505000D03*
D17*
X138705000Y-32965000D03*
%TD*%
D12*
%TO.C,KiKit_MB_1_2*%
X104750000Y-48166666D03*
%TD*%
%TO.C,KiKit_MB_5_2*%
X149750000Y-48166666D03*
%TD*%
%TO.C,KiKit_MB_16_4*%
X171000000Y-112750000D03*
%TD*%
D10*
%TO.C,R2*%
X183705000Y-86305000D03*
D11*
X183705000Y-96465000D03*
%TD*%
D12*
%TO.C,KiKit_MB_13_1*%
X149750000Y-94000000D03*
%TD*%
%TO.C,KiKit_MB_1_4*%
X104750000Y-46500000D03*
%TD*%
D18*
%TO.C,C1*%
X118500000Y-98026000D03*
D10*
X121000000Y-98026000D03*
%TD*%
D12*
%TO.C,KiKit_MB_8_2*%
X172666666Y-67750000D03*
%TD*%
%TO.C,KiKit_MB_9_4*%
X104750000Y-91500000D03*
%TD*%
%TO.C,KiKit_MB_4_1*%
X128500000Y-67750000D03*
%TD*%
D16*
%TO.C,D1*%
X113940000Y-35505000D03*
D17*
X113940000Y-32965000D03*
%TD*%
D12*
%TO.C,KiKit_MB_14_7*%
X192250000Y-94000000D03*
%TD*%
%TO.C,KiKit_MB_5_6*%
X149750000Y-44833334D03*
%TD*%
%TO.C,KiKit_MB_2_2*%
X147250000Y-44833334D03*
%TD*%
%TO.C,KiKit_MB_14_5*%
X192250000Y-92333333D03*
%TD*%
%TO.C,KiKit_MB_13_2*%
X149750000Y-93166666D03*
%TD*%
%TO.C,KiKit_MB_16_3*%
X171833333Y-112750000D03*
%TD*%
D11*
%TO.C,*%
X124500000Y-104000000D03*
%TD*%
D18*
%TO.C,C2*%
X179500000Y-98000000D03*
D10*
X177000000Y-98000000D03*
%TD*%
D12*
%TO.C,KiKit_MB_13_3*%
X149750000Y-92333333D03*
%TD*%
D13*
%TO.C,H4*%
X144500000Y-110000000D03*
%TD*%
D12*
%TO.C,KiKit_MB_19_1*%
X194500000Y-25000000D03*
%TD*%
%TO.C,KiKit_MB_4_5*%
X125166667Y-67750000D03*
%TD*%
%TO.C,KiKit_MB_18_2*%
X100250000Y-113000000D03*
%TD*%
D16*
%TO.C,D2*%
X138705000Y-80505000D03*
D17*
X138705000Y-77965000D03*
%TD*%
D12*
%TO.C,KiKit_MB_17_3*%
X101000000Y-25000000D03*
%TD*%
D13*
%TO.C,H2*%
X144500000Y-28000000D03*
%TD*%
%TO.C,H4*%
X144500000Y-65000000D03*
%TD*%
D11*
%TO.C,*%
X173500000Y-55000000D03*
%TD*%
D18*
%TO.C,C1*%
X163500000Y-98026000D03*
D10*
X166000000Y-98026000D03*
%TD*%
D12*
%TO.C,KiKit_MB_1_7*%
X104750000Y-44000000D03*
%TD*%
D19*
%TO.C,J1*%
X189500000Y-98460000D03*
D20*
X189500000Y-101000000D03*
%TD*%
D14*
%TO.C,Q1*%
X160845000Y-109710000D03*
D15*
X160845000Y-107170000D03*
X160845000Y-104630000D03*
%TD*%
D12*
%TO.C,KiKit_MB_8_7*%
X168500000Y-67750000D03*
%TD*%
M02*
