M48
; DRILL file {KiCad 7.0.8} date Sun Apr 14 16:12:40 2024
; FORMAT={-:-/ absolute / inch / decimal}
; #@! TF.CreationDate,2024-04-14T16:12:40+09:00
; #@! TF.GenerationSoftware,Kicad,Pcbnew,7.0.8
; #@! TF.FileFunction,Plated,1,2,PTH
FMAT,2
INCH
; #@! TA.AperFunction,Plated,PTH,ComponentDrill
T1C0.0315
; #@! TA.AperFunction,Plated,PTH,ComponentDrill
T2C0.0354
; #@! TA.AperFunction,Plated,PTH,ComponentDrill
T3C0.0394
%
G90
G05
T1
X4.4858Y-1.6228
X4.4858Y-2.0228
X4.4858Y-3.3945
X4.4858Y-3.7945
X4.5608Y-2.3476
X4.5608Y-2.4476
X4.5608Y-2.5476
X4.5608Y-4.1193
X4.5608Y-4.2193
X4.5608Y-4.3193
X4.6654Y-2.0876
X4.6654Y-3.8593
X4.7638Y-2.0876
X4.7638Y-3.8593
X4.8108Y-1.4176
X4.8108Y-1.8176
X4.8108Y-3.1893
X4.8108Y-3.5893
X4.9016Y-2.3228
X4.9016Y-4.0945
X5.0591Y-2.1654
X5.0591Y-3.937
X5.1358Y-1.4176
X5.1358Y-1.8176
X5.1358Y-3.1893
X5.1358Y-3.5893
X5.1969Y-2.0866
X5.1969Y-3.8583
X5.2953Y-2.0866
X5.2953Y-3.8583
X5.3858Y-2.348
X5.3858Y-2.448
X5.3858Y-2.548
X5.3858Y-4.1197
X5.3858Y-4.2197
X5.3858Y-4.3197
X5.4608Y-1.6262
X5.4608Y-2.0262
X5.4608Y-3.3978
X5.4608Y-3.7978
X6.2575Y-1.6228
X6.2575Y-2.0228
X6.2575Y-3.3945
X6.2575Y-3.7945
X6.3325Y-2.3476
X6.3325Y-2.4476
X6.3325Y-2.5476
X6.3325Y-4.1193
X6.3325Y-4.2193
X6.3325Y-4.3193
X6.437Y-2.0876
X6.437Y-3.8593
X6.5354Y-2.0876
X6.5354Y-3.8593
X6.5825Y-1.4176
X6.5825Y-1.8176
X6.5825Y-3.1893
X6.5825Y-3.5893
X6.6732Y-2.3228
X6.6732Y-4.0945
X6.8307Y-2.1654
X6.8307Y-3.937
X6.9075Y-1.4176
X6.9075Y-1.8176
X6.9075Y-3.1893
X6.9075Y-3.5893
X6.9685Y-2.0866
X6.9685Y-3.8583
X7.0669Y-2.0866
X7.0669Y-3.8583
X7.1575Y-2.348
X7.1575Y-2.448
X7.1575Y-2.548
X7.1575Y-4.1197
X7.1575Y-4.2197
X7.1575Y-4.3197
X7.2325Y-1.6262
X7.2325Y-2.0262
X7.2325Y-3.3978
X7.2325Y-3.7978
T2
X4.4858Y-1.2978
X4.4858Y-1.3978
X4.4858Y-3.0695
X4.4858Y-3.1695
X5.4608Y-1.2978
X5.4608Y-1.3978
X5.4608Y-3.0695
X5.4608Y-3.1695
X6.2575Y-1.2978
X6.2575Y-1.3978
X6.2575Y-3.0695
X6.2575Y-3.1695
X7.2325Y-1.2978
X7.2325Y-1.3978
X7.2325Y-3.0695
X7.2325Y-3.1695
T3
X5.689Y-2.1047
X5.689Y-2.2047
X5.689Y-3.8764
X5.689Y-3.9764
X7.4606Y-2.1047
X7.4606Y-2.2047
X7.4606Y-3.8764
X7.4606Y-3.9764
T0
M30
