M48
; DRILL file {KiCad 7.0.8} date Mon Aug 26 18:47:27 2024
; FORMAT={-:-/ absolute / inch / decimal}
; #@! TF.CreationDate,2024-08-26T18:47:27+09:00
; #@! TF.GenerationSoftware,Kicad,Pcbnew,7.0.8
; #@! TF.FileFunction,Plated,1,2,PTH
FMAT,2
INCH
; #@! TA.AperFunction,Plated,PTH,ComponentDrill
T1C0.0315
; #@! TA.AperFunction,Plated,PTH,ComponentDrill
T2C0.0354
; #@! TA.AperFunction,Plated,PTH,ComponentDrill
T3C0.0394
%
G90
G05
T1
X4.4858Y-1.6228
X4.4858Y-2.0228
X4.4858Y-3.3945
X4.4858Y-3.7945
X4.5608Y-2.3476
X4.5608Y-2.4476
X4.5608Y-2.5476
X4.5608Y-4.1193
X4.5608Y-4.2193
X4.5608Y-4.3193
X4.6584Y-2.0876
X4.6584Y-3.8593
X4.7568Y-2.0876
X4.7568Y-3.8593
X4.8108Y-1.4176
X4.8108Y-1.8176
X4.8108Y-3.1893
X4.8108Y-3.5893
X4.8491Y-2.3476
X4.8491Y-4.1193
X5.0591Y-2.1326
X5.0591Y-3.9043
X5.1258Y-1.4176
X5.1258Y-1.8176
X5.1258Y-3.1893
X5.1258Y-3.5893
X5.1948Y-2.0866
X5.1948Y-3.8583
X5.2933Y-2.0866
X5.2933Y-3.8583
X5.3758Y-2.348
X5.3758Y-2.448
X5.3758Y-2.548
X5.3758Y-4.1197
X5.3758Y-4.2197
X5.3758Y-4.3197
X5.4508Y-1.6262
X5.4508Y-2.0262
X5.4508Y-3.3978
X5.4508Y-3.7978
X6.2575Y-1.6228
X6.2575Y-2.0228
X6.2575Y-3.3945
X6.2575Y-3.7945
X6.3325Y-2.3476
X6.3325Y-2.4476
X6.3325Y-2.5476
X6.3325Y-4.1193
X6.3325Y-4.2193
X6.3325Y-4.3193
X6.43Y-2.0876
X6.43Y-3.8593
X6.5285Y-2.0876
X6.5285Y-3.8593
X6.5825Y-1.4176
X6.5825Y-1.8176
X6.5825Y-3.1893
X6.5825Y-3.5893
X6.6207Y-2.3476
X6.6207Y-4.1193
X6.8307Y-2.1326
X6.8307Y-3.9043
X6.8975Y-1.4176
X6.8975Y-1.8176
X6.8975Y-3.1893
X6.8975Y-3.5893
X6.9665Y-2.0866
X6.9665Y-3.8583
X7.0649Y-2.0866
X7.0649Y-3.8583
X7.1475Y-2.348
X7.1475Y-2.448
X7.1475Y-2.548
X7.1475Y-4.1197
X7.1475Y-4.2197
X7.1475Y-4.3197
X7.2225Y-1.6262
X7.2225Y-2.0262
X7.2225Y-3.3978
X7.2225Y-3.7978
T2
X4.4858Y-1.2978
X4.4858Y-1.3978
X4.4858Y-3.0695
X4.4858Y-3.1695
X5.4508Y-1.2978
X5.4508Y-1.3978
X5.4508Y-3.0695
X5.4508Y-3.1695
X6.2575Y-1.2978
X6.2575Y-1.3978
X6.2575Y-3.0695
X6.2575Y-3.1695
X7.2225Y-1.2978
X7.2225Y-1.3978
X7.2225Y-3.0695
X7.2225Y-3.1695
T3
X5.679Y-2.1063
X5.679Y-2.2047
X5.679Y-3.878
X5.679Y-3.9764
X7.4506Y-2.1063
X7.4506Y-2.2047
X7.4506Y-3.878
X7.4506Y-3.9764
T0
M30
